{"accessors" : [{"bufferView" : 0, "byteOffset" : 0, "componentType" : 5123, "count" : 384, "type" : "SCALAR", "max" : [266], "min" : [0]}, {"bufferView" : 1, "byteOffset" : 0, "componentType" : 5126, "count" : 267, "type" : "VEC3", "max" : [55.50790023803711, 100, 55.50790023803711], "min" : [-55.50790023803711, 0, -55.50790023803711], "name" : "POSITION"}, {"bufferView" : 1, "byteOffset" : 12, "componentType" : 5126, "count" : 267, "type" : "VEC3", "max" : [1.0000044107437134, 1.0000044107437134, 1.0000044107437134], "min" : [-1.0000044107437134, -1.0000044107437134, -1.0000044107437134], "name" : "NORMAL"}, {"bufferView" : 1, "byteOffset" : 24, "componentType" : 5126, "count" : 267, "type" : "VEC2", "max" : [55.50790023803711, 100], "min" : [-55.50790023803711, 0], "name" : "TEXCOORD_0"}, {"bufferView" : 0, "byteOffset" : 768, "componentType" : 5123, "count" : 84, "type" : "SCALAR", "max" : [47], "min" : [0]}, {"bufferView" : 2, "byteOffset" : 0, "componentType" : 5126, "count" : 48, "type" : "VEC3", "max" : [22.99049949645996, 10.068499565124512, 60.50419998168945], "min" : [-22.99049949645996, 0, 55.50419998168945], "name" : "POSITION"}, {"bufferView" : 2, "byteOffset" : 12, "componentType" : 5126, "count" : 48, "type" : "VEC3", "max" : [1.0000044107437134, 1.0000044107437134, 1.0000044107437134], "min" : [-1.0000044107437134, -1.0000044107437134, -1.0000044107437134], "name" : "NORMAL"}, {"bufferView" : 2, "byteOffset" : 24, "componentType" : 5126, "count" : 48, "type" : "VEC2", "max" : [22.99049949645996, 10.068460464477539], "min" : [-22.99049949645996, 0], "name" : "TEXCOORD_0"}, {"bufferView" : 0, "byteOffset" : 936, "componentType" : 5123, "count" : 84, "type" : "SCALAR", "max" : [47], "min" : [0]}, {"bufferView" : 3, "byteOffset" : 0, "componentType" : 5126, "count" : 48, "type" : "VEC3", "max" : [60.50790023803711, 10.068499565124512, 22.981000900268555], "min" : [55.50790023803711, 0, -23], "name" : "POSITION"}, {"bufferView" : 3, "byteOffset" : 12, "componentType" : 5126, "count" : 48, "type" : "VEC3", "max" : [1.0000044107437134, 1.0000044107437134, 1.0000044107437134], "min" : [-1.0000044107437134, -1.0000044107437134, -1.0000044107437134], "name" : "NORMAL"}, {"bufferView" : 3, "byteOffset" : 24, "componentType" : 5126, "count" : 48, "type" : "VEC2", "max" : [60.50790023803711, 10.068460464477539], "min" : [55.50790023803711, 0], "name" : "TEXCOORD_0"}, {"bufferView" : 0, "byteOffset" : 1104, "componentType" : 5123, "count" : 84, "type" : "SCALAR", "max" : [47], "min" : [0]}, {"bufferView" : 4, "byteOffset" : 0, "componentType" : 5126, "count" : 48, "type" : "VEC3", "max" : [22.981000900268555, 10.068499565124512, -55.50790023803711], "min" : [-23, 0, -60.50790023803711], "name" : "POSITION"}, {"bufferView" : 4, "byteOffset" : 12, "componentType" : 5126, "count" : 48, "type" : "VEC3", "max" : [1.0000044107437134, 1.0000044107437134, 1.0000044107437134], "min" : [-1.0000044107437134, -1.0000044107437134, -1.0000044107437134], "name" : "NORMAL"}, {"bufferView" : 4, "byteOffset" : 24, "componentType" : 5126, "count" : 48, "type" : "VEC2", "max" : [22.981000900268555, 10.068460464477539], "min" : [-23, 0], "name" : "TEXCOORD_0"}, {"bufferView" : 0, "byteOffset" : 1272, "componentType" : 5123, "count" : 84, "type" : "SCALAR", "max" : [47], "min" : [0]}, {"bufferView" : 5, "byteOffset" : 0, "componentType" : 5126, "count" : 48, "type" : "VEC3", "max" : [-55.50790023803711, 10.068499565124512, 23], "min" : [-60.50790023803711, 0, -22.981000900268555], "name" : "POSITION"}, {"bufferView" : 5, "byteOffset" : 12, "componentType" : 5126, "count" : 48, "type" : "VEC3", "max" : [1.0000044107437134, 1.0000044107437134, 1.0000044107437134], "min" : [-1.0000044107437134, -1.0000044107437134, -1.0000044107437134], "name" : "NORMAL"}, {"bufferView" : 5, "byteOffset" : 24, "componentType" : 5126, "count" : 48, "type" : "VEC2", "max" : [-55.50790023803711, 10.068460464477539], "min" : [-60.50790023803711, 0], "name" : "TEXCOORD_0"}], "asset" : {"generator" : "Aspose.3D 24.6.0", "version" : "2.0"}, "buffers" : [{"uri" : "data:application/octet-stream;base64,", "byteLength" : 16152}], "bufferViews" : [{"buffer" : 0, "byteOffset" : 0, "byteLength" : 1440, "target" : 34963}, {"buffer" : 0, "byteOffset" : 1444, "byteLength" : 8544, "byteStride" : 32, "target" : 34962}, {"buffer" : 0, "byteOffset" : 9992, "byteLength" : 1536, "byteStride" : 32, "target" : 34962}, {"buffer" : 0, "byteOffset" : 11532, "byteLength" : 1536, "byteStride" : 32, "target" : 34962}, {"buffer" : 0, "byteOffset" : 13072, "byteLength" : 1536, "byteStride" : 32, "target" : 34962}, {"buffer" : 0, "byteOffset" : 14612, "byteLength" : 1536, "byteStride" : 32, "target" : 34962}], "cameras" : [{"orthographic" : {"xmag" : 1, "ymag" : 1, "zfar" : 4000, "znear" : 0.1}, "type" : "orthographic", "name" : "Camera"}], "materials" : [{"name" : "カラー___128__255__255__", "pbrMetallicRoughness" : {"baseColorFactor" : [0.501961, 1, 1, 1], "metallicFactor" : 1, "roughnessFactor" : 1}, "emissiveFactor" : [0, 0, 0], "alphaMode" : "OPAQUE", "doubleSided" : false}, {"name" : "カラー___143__143__143__", "pbrMetallicRoughness" : {"baseColorFactor" : [0.560784, 0.560784, 0.560784, 1], "metallicFactor" : 1, "roughnessFactor" : 1}, "emissiveFactor" : [0, 0, 0], "alphaMode" : "OPAQUE", "doubleSided" : false}], "meshes" : [{"primitives" : [{"attributes" : {"POSITION" : 1, "NORMAL" : 2, "TEXCOORD_0" : 3}, "indices" : 0, "material" : 0, "mode" : 4}], "name" : ""}, {"primitives" : [{"attributes" : {"POSITION" : 5, "NORMAL" : 6, "TEXCOORD_0" : 7}, "indices" : 4, "material" : 1, "mode" : 4}], "name" : ""}, {"primitives" : [{"attributes" : {"POSITION" : 9, "NORMAL" : 10, "TEXCOORD_0" : 11}, "indices" : 8, "material" : 1, "mode" : 4}], "name" : ""}, {"primitives" : [{"attributes" : {"POSITION" : 13, "NORMAL" : 14, "TEXCOORD_0" : 15}, "indices" : 12, "material" : 1, "mode" : 4}], "name" : ""}, {"primitives" : [{"attributes" : {"POSITION" : 17, "NORMAL" : 18, "TEXCOORD_0" : 19}, "indices" : 16, "material" : 1, "mode" : 4}], "name" : ""}], "nodes" : [{"mesh" : 0, "name" : "切り欠き"}, {"mesh" : 1, "name" : "切り欠き"}, {"mesh" : 2, "name" : "切り欠き"}, {"mesh" : 3, "name" : "切り欠き"}, {"mesh" : 4, "name" : "切り欠き"}, {"children" : [0, 1, 2, 3, 4], "name" : "レイヤ-1"}, {"children" : [5], "name" : "ジオメトリ"}, {"camera" : 0, "matrix" : [0.857620921686439, -1.2798999115167469E-08, -0.5142823686319632, 0, -0.2633639052116118, 0.8589259350727135, -0.43918753567371843, 0, 0.44173046998977994, 0.5120998321220819, 0.7366328487266527, 0, 104.691, 51.2507, 67.9023, 1], "name" : "Camera"}, {"children" : [7], "name" : "カメラ"}, {"children" : [6, 8], "name" : "Vectorworksのシーン_PGCCエレベーター"}], "scene" : 0, "scenes" : [{"nodes" : [9]}]}